<?xml version="1.0" encoding="us-ascii" standalone="no"?><svg xmlns="http://www.w3.org/2000/svg" xmlns:xlink="http://www.w3.org/1999/xlink" contentStyleType="text/css" height="1305px" preserveAspectRatio="none" style="width:430px;height:1305px;background:#FFFFFF;" version="1.1" viewBox="0 0 430 1305" width="430px" zoomAndPan="magnify"><defs/><g><text fill="#000000" font-family="sans-serif" font-size="14" font-weight="bold" lengthAdjust="spacing" textLength="387" x="20" y="33.5352">Workflows for Add Node, Remove Node and Get Node</text><rect fill="none" height="412.6406" style="stroke:#000000;stroke-width:1.5;" width="343" x="43.5" y="48.4883"/><path d="M121.5,48.4883 L121.5,57.9766 L111.5,67.9766 L43.5,67.9766 " fill="none" style="stroke:#000000;stroke-width:1.5;"/><text fill="#000000" font-family="sans-serif" font-size="14" lengthAdjust="spacing" textLength="68" x="46.5" y="63.0234">Add Node</text><ellipse cx="215" cy="87.9766" fill="#222222" rx="10" ry="10" style="stroke:#222222;stroke-width:1.0;"/><rect fill="#F1F1F1" height="34.1328" rx="12.5" ry="12.5" style="stroke:#181818;stroke-width:0.5;" width="112" x="159" y="117.9766"/><text fill="#000000" font-family="sans-serif" font-size="12" lengthAdjust="spacing" textLength="92" x="169" y="139.5781">For each replica</text><rect fill="none" height="245.0195" style="stroke:#000000;stroke-width:1.5;" width="323" x="53.5" y="162.1094"/><path d="M150.5,162.1094 L150.5,171.5977 L140.5,181.5977 L53.5,181.5977 " fill="none" style="stroke:#000000;stroke-width:1.5;"/><text fill="#000000" font-family="sans-serif" font-size="14" lengthAdjust="spacing" textLength="87" x="56.5" y="176.6445">Replica Loop</text><rect fill="#F1F1F1" height="34.1328" rx="12.5" ry="12.5" style="stroke:#181818;stroke-width:0.5;" width="177" x="126.5" y="198.5977"/><text fill="#000000" font-family="sans-serif" font-size="12" lengthAdjust="spacing" textLength="157" x="136.5" y="220.1992">Create a virtual node name</text><rect fill="#F1F1F1" height="34.1328" rx="12.5" ry="12.5" style="stroke:#181818;stroke-width:0.5;" width="272" x="79" y="252.7305"/><text fill="#000000" font-family="sans-serif" font-size="12" lengthAdjust="spacing" textLength="252" x="89" y="274.332">Calculate the hash of this virtual node name</text><rect fill="#F1F1F1" height="34.1328" rx="12.5" ry="12.5" style="stroke:#181818;stroke-width:0.5;" width="303" x="63.5" y="306.8633"/><text fill="#000000" font-family="sans-serif" font-size="12" lengthAdjust="spacing" textLength="283" x="73.5" y="328.4648">Add this hash and the node to the ring dictionary</text><rect fill="#F1F1F1" height="34.1328" rx="12.5" ry="12.5" style="stroke:#181818;stroke-width:0.5;" width="232" x="99" y="360.9961"/><text fill="#000000" font-family="sans-serif" font-size="12" lengthAdjust="spacing" textLength="212" x="109" y="382.5977">Insert the hash in the sorted keys list</text><ellipse cx="215" cy="438.1289" fill="none" rx="11" ry="11" style="stroke:#222222;stroke-width:1.0;"/><ellipse cx="215" cy="438.1289" fill="#222222" rx="6" ry="6" style="stroke:#222222;stroke-width:1.0;"/><rect fill="none" height="426.7734" style="stroke:#000000;stroke-width:1.5;" width="355" x="37.5" y="471.1289"/><path d="M141.5,471.1289 L141.5,480.6172 L131.5,490.6172 L37.5,490.6172 " fill="none" style="stroke:#000000;stroke-width:1.5;"/><text fill="#000000" font-family="sans-serif" font-size="14" lengthAdjust="spacing" textLength="94" x="40.5" y="485.6641">Remove Node</text><ellipse cx="215" cy="510.6172" fill="#222222" rx="10" ry="10" style="stroke:#222222;stroke-width:1.0;"/><rect fill="#F1F1F1" height="34.1328" rx="12.5" ry="12.5" style="stroke:#181818;stroke-width:0.5;" width="112" x="159" y="540.6172"/><text fill="#000000" font-family="sans-serif" font-size="12" lengthAdjust="spacing" textLength="92" x="169" y="562.2188">For each replica</text><rect fill="none" height="259.1523" style="stroke:#000000;stroke-width:1.5;" width="335" x="47.5" y="584.75"/><path d="M144.5,584.75 L144.5,594.2383 L134.5,604.2383 L47.5,604.2383 " fill="none" style="stroke:#000000;stroke-width:1.5;"/><text fill="#000000" font-family="sans-serif" font-size="14" lengthAdjust="spacing" textLength="87" x="50.5" y="599.2852">Replica Loop</text><rect fill="#F1F1F1" height="34.1328" rx="12.5" ry="12.5" style="stroke:#181818;stroke-width:0.5;" width="177" x="126.5" y="621.2383"/><text fill="#000000" font-family="sans-serif" font-size="12" lengthAdjust="spacing" textLength="157" x="136.5" y="642.8398">Create a virtual node name</text><rect fill="#F1F1F1" height="34.1328" rx="12.5" ry="12.5" style="stroke:#181818;stroke-width:0.5;" width="272" x="79" y="675.3711"/><text fill="#000000" font-family="sans-serif" font-size="12" lengthAdjust="spacing" textLength="252" x="89" y="696.9727">Calculate the hash of this virtual node name</text><rect fill="#F1F1F1" height="48.2656" rx="12.5" ry="12.5" style="stroke:#181818;stroke-width:0.5;" width="315" x="57.5" y="729.5039"/><text fill="#000000" font-family="sans-serif" font-size="12" lengthAdjust="spacing" textLength="295" x="67.5" y="751.1055">Remove this hash and its corresponding node from</text><text fill="#000000" font-family="sans-serif" font-size="12" lengthAdjust="spacing" textLength="104" x="71.5" y="765.2383">the ring dictionary</text><rect fill="#F1F1F1" height="34.1328" rx="12.5" ry="12.5" style="stroke:#181818;stroke-width:0.5;" width="263" x="83.5" y="797.7695"/><text fill="#000000" font-family="sans-serif" font-size="12" lengthAdjust="spacing" textLength="243" x="93.5" y="819.3711">Remove the hash from the sorted keys list</text><ellipse cx="215" cy="874.9023" fill="none" rx="11" ry="11" style="stroke:#222222;stroke-width:1.0;"/><ellipse cx="215" cy="874.9023" fill="#222222" rx="6" ry="6" style="stroke:#222222;stroke-width:1.0;"/><rect fill="none" height="386.7734" style="stroke:#000000;stroke-width:1.5;" width="346" x="42" y="907.9023"/><path d="M115,907.9023 L115,917.3906 L105,927.3906 L42,927.3906 " fill="none" style="stroke:#000000;stroke-width:1.5;"/><text fill="#000000" font-family="sans-serif" font-size="14" lengthAdjust="spacing" textLength="63" x="45" y="922.4375">Get Node</text><ellipse cx="215" cy="947.3906" fill="#222222" rx="10" ry="10" style="stroke:#222222;stroke-width:1.0;"/><rect fill="#F1F1F1" height="34.1328" rx="12.5" ry="12.5" style="stroke:#181818;stroke-width:0.5;" width="112" x="159" y="977.3906"/><text fill="#000000" font-family="sans-serif" font-size="12" lengthAdjust="spacing" textLength="92" x="169" y="998.9922">For each replica</text><rect fill="none" height="219.1523" style="stroke:#000000;stroke-width:1.5;" width="326" x="52" y="1021.5234"/><path d="M149,1021.5234 L149,1031.0117 L139,1041.0117 L52,1041.0117 " fill="none" style="stroke:#000000;stroke-width:1.5;"/><text fill="#000000" font-family="sans-serif" font-size="14" lengthAdjust="spacing" textLength="87" x="55" y="1036.0586">Replica Loop</text><rect fill="#F1F1F1" height="34.1328" rx="12.5" ry="12.5" style="stroke:#181818;stroke-width:0.5;" width="220" x="105" y="1058.0117"/><text fill="#000000" font-family="sans-serif" font-size="12" lengthAdjust="spacing" textLength="200" x="115" y="1079.6133">Calculate the hash of the given key</text><rect fill="#F1F1F1" height="48.2656" rx="12.5" ry="12.5" style="stroke:#181818;stroke-width:0.5;" width="306" x="62" y="1112.1445"/><text fill="#000000" font-family="sans-serif" font-size="12" lengthAdjust="spacing" textLength="286" x="72" y="1133.7461">Find the closest hash in the sorted keys list that is</text><text fill="#000000" font-family="sans-serif" font-size="12" lengthAdjust="spacing" textLength="197" x="72" y="1147.8789">greater than or equal to this hash.</text><rect fill="#F1F1F1" height="48.2656" rx="12.5" ry="12.5" style="stroke:#181818;stroke-width:0.5;" width="260" x="85" y="1180.4102"/><text fill="#000000" font-family="sans-serif" font-size="12" lengthAdjust="spacing" textLength="240" x="95" y="1202.0117">Return the node associated with this hash</text><text fill="#000000" font-family="sans-serif" font-size="12" lengthAdjust="spacing" textLength="139" x="95" y="1216.1445">from the ring dictionary.</text><ellipse cx="215" cy="1271.6758" fill="none" rx="11" ry="11" style="stroke:#222222;stroke-width:1.0;"/><ellipse cx="215" cy="1271.6758" fill="#222222" rx="6" ry="6" style="stroke:#222222;stroke-width:1.0;"/><line style="stroke:#181818;stroke-width:1.0;" x1="215" x2="215" y1="97.9766" y2="117.9766"/><polygon fill="#181818" points="211,107.9766,215,117.9766,219,107.9766,215,111.9766" style="stroke:#181818;stroke-width:1.0;"/><line style="stroke:#181818;stroke-width:1.0;" x1="215" x2="215" y1="232.7305" y2="252.7305"/><polygon fill="#181818" points="211,242.7305,215,252.7305,219,242.7305,215,246.7305" style="stroke:#181818;stroke-width:1.0;"/><line style="stroke:#181818;stroke-width:1.0;" x1="215" x2="215" y1="286.8633" y2="306.8633"/><polygon fill="#181818" points="211,296.8633,215,306.8633,219,296.8633,215,300.8633" style="stroke:#181818;stroke-width:1.0;"/><line style="stroke:#181818;stroke-width:1.0;" x1="215" x2="215" y1="340.9961" y2="360.9961"/><polygon fill="#181818" points="211,350.9961,215,360.9961,219,350.9961,215,354.9961" style="stroke:#181818;stroke-width:1.0;"/><line style="stroke:#181818;stroke-width:1.0;" x1="215" x2="215" y1="152.1094" y2="198.5977"/><polygon fill="#181818" points="211,188.5977,215,198.5977,219,188.5977,215,192.5977" style="stroke:#181818;stroke-width:1.0;"/><line style="stroke:#181818;stroke-width:1.0;" x1="215" x2="215" y1="395.1289" y2="427.1289"/><polygon fill="#181818" points="211,417.1289,215,427.1289,219,417.1289,215,421.1289" style="stroke:#181818;stroke-width:1.0;"/><line style="stroke:#181818;stroke-width:1.0;" x1="215" x2="215" y1="520.6172" y2="540.6172"/><polygon fill="#181818" points="211,530.6172,215,540.6172,219,530.6172,215,534.6172" style="stroke:#181818;stroke-width:1.0;"/><line style="stroke:#181818;stroke-width:1.0;" x1="215" x2="215" y1="655.3711" y2="675.3711"/><polygon fill="#181818" points="211,665.3711,215,675.3711,219,665.3711,215,669.3711" style="stroke:#181818;stroke-width:1.0;"/><line style="stroke:#181818;stroke-width:1.0;" x1="215" x2="215" y1="709.5039" y2="729.5039"/><polygon fill="#181818" points="211,719.5039,215,729.5039,219,719.5039,215,723.5039" style="stroke:#181818;stroke-width:1.0;"/><line style="stroke:#181818;stroke-width:1.0;" x1="215" x2="215" y1="777.7695" y2="797.7695"/><polygon fill="#181818" points="211,787.7695,215,797.7695,219,787.7695,215,791.7695" style="stroke:#181818;stroke-width:1.0;"/><line style="stroke:#181818;stroke-width:1.0;" x1="215" x2="215" y1="574.75" y2="621.2383"/><polygon fill="#181818" points="211,611.2383,215,621.2383,219,611.2383,215,615.2383" style="stroke:#181818;stroke-width:1.0;"/><line style="stroke:#181818;stroke-width:1.0;" x1="215" x2="215" y1="831.9023" y2="863.9023"/><polygon fill="#181818" points="211,853.9023,215,863.9023,219,853.9023,215,857.9023" style="stroke:#181818;stroke-width:1.0;"/><line style="stroke:#181818;stroke-width:1.0;" x1="215" x2="215" y1="957.3906" y2="977.3906"/><polygon fill="#181818" points="211,967.3906,215,977.3906,219,967.3906,215,971.3906" style="stroke:#181818;stroke-width:1.0;"/><line style="stroke:#181818;stroke-width:1.0;" x1="215" x2="215" y1="1092.1445" y2="1112.1445"/><polygon fill="#181818" points="211,1102.1445,215,1112.1445,219,1102.1445,215,1106.1445" style="stroke:#181818;stroke-width:1.0;"/><line style="stroke:#181818;stroke-width:1.0;" x1="215" x2="215" y1="1160.4102" y2="1180.4102"/><polygon fill="#181818" points="211,1170.4102,215,1180.4102,219,1170.4102,215,1174.4102" style="stroke:#181818;stroke-width:1.0;"/><line style="stroke:#181818;stroke-width:1.0;" x1="215" x2="215" y1="1011.5234" y2="1058.0117"/><polygon fill="#181818" points="211,1048.0117,215,1058.0117,219,1048.0117,215,1052.0117" style="stroke:#181818;stroke-width:1.0;"/><line style="stroke:#181818;stroke-width:1.0;" x1="215" x2="215" y1="1228.6758" y2="1260.6758"/><polygon fill="#181818" points="211,1250.6758,215,1260.6758,219,1250.6758,215,1254.6758" style="stroke:#181818;stroke-width:1.0;"/><!--SRC=[pPAnRW8n38RtUmgBkU81obHLegfKTM3fmX8bFiuYn8TjGAZYtNi91nnLeKk7tkGu_ftVtzd88i87oxAEl5EeMU0f17ZdW0ymmnLliHp0fG0lQELGLQqJ8oDEC3gLZ-2pWkvJw-wg4ZvEktReV0E2RIJl9YKz4C-EUNXZRayDYl9Pq5dtAcn9RECYf6mYkHLE1aKk-atCTTOWD4uRuBgBIU_AikDIL1Hvi2mlbSOb5aeB2EIpIIVxWVOrAOfTtgDKOcKn3B34lK8ajQFYKFL4kAqELz06PCzZ7y7zOswzwMjqP0gUHL1RJY5pAz9QU3LFly0yD-nDPD5Td3TedlRoZr7Ue8Ime2scx6umovJwFVAH5TNkhaUNT0QayxGe_qjo8a6skixqonhsbCTNm6mZwRAkJfKzkTnxHzPSHFDqPlaD__WdbjKN]--></g></svg>